<svg width="29.000000" height="22.000000" viewBox="0 0 29 22" fill="none" xmlns="http://www.w3.org/2000/svg" xmlns:xlink="http://www.w3.org/1999/xlink">
	<desc>
			Created with Pixso.
	</desc>
	<defs/>
	<path id="Vector" d="M10.58 20.89L10.57 20.88L10.55 20.87C10.4 20.79 10.25 20.7 10.1 20.62C8.32 19.56 6.66 18.32 5.15 16.92C2.46 14.41 -0.38 10.7 -0.38 6.12C-0.38 2.7 2.49 -0.01 5.96 -0.01C6.93 -0.01 7.88 0.2 8.75 0.62C9.62 1.03 10.39 1.64 11 2.39C11.6 1.64 12.37 1.03 13.24 0.62C14.11 0.2 15.06 -0.01 16.03 -0.01C19.5 -0.01 22.37 2.7 22.37 6.12C22.37 10.7 19.53 14.41 16.84 16.92C15.33 18.32 13.67 19.56 11.89 20.62C11.74 20.7 11.59 20.79 11.44 20.87L11.42 20.88L11.41 20.89L11.41 20.89C11.28 20.96 11.14 20.99 11 20.99C10.85 20.99 10.71 20.96 10.58 20.89L10.58 20.89Z" fill="#FFFFFF" fill-opacity="1.000000" fill-rule="nonzero"/>
	<path id="offline_bolt" d="M20.89 18.96L24.08 12.73L21.88 12.73L21.88 8.69L18.58 14.93L20.89 14.93L20.89 18.96ZM21.33 21.16C20.31 21.16 19.36 20.97 18.47 20.58C17.58 20.2 16.8 19.67 16.14 19.01C15.48 18.35 14.96 17.58 14.57 16.69C14.19 15.79 14 14.84 14 13.83C14 12.81 14.19 11.86 14.57 10.97C14.96 10.07 15.48 9.3 16.14 8.64C16.8 7.98 17.58 7.46 18.47 7.07C19.36 6.69 20.31 6.49 21.33 6.49C22.34 6.49 23.3 6.69 24.19 7.07C25.08 7.46 25.86 7.98 26.52 8.64C27.18 9.3 27.7 10.07 28.08 10.97C28.47 11.86 28.66 12.81 28.66 13.83C28.66 14.84 28.47 15.79 28.08 16.69C27.7 17.58 27.18 18.35 26.52 19.01C25.86 19.67 25.08 20.2 24.19 20.58C23.3 20.97 22.34 21.16 21.33 21.16Z" fill="#894189" fill-opacity="1.000000" fill-rule="nonzero"/>
	<path id="offline_bolt" d="M21.26 18.49L24.16 12.83L22.16 12.83L22.16 9.16L19.16 14.83L21.26 14.83L21.26 18.49ZM21.66 20.49C20.74 20.49 19.87 20.32 19.06 19.97C18.25 19.62 17.54 19.14 16.95 18.54C16.35 17.94 15.87 17.24 15.52 16.43C15.17 15.62 15 14.75 15 13.83C15 12.9 15.17 12.04 15.52 11.23C15.87 10.42 16.35 9.71 16.95 9.11C17.54 8.51 18.25 8.03 19.06 7.68C19.87 7.33 20.74 7.16 21.66 7.16C22.58 7.16 23.45 7.33 24.26 7.68C25.07 8.03 25.78 8.51 26.38 9.11C26.98 9.71 27.45 10.42 27.8 11.23C28.15 12.04 28.33 12.9 28.33 13.83C28.33 14.75 28.15 15.62 27.8 16.43C27.45 17.24 26.98 17.94 26.38 18.54C25.78 19.14 25.07 19.62 24.26 19.97C23.45 20.32 22.58 20.49 21.66 20.49Z" fill="#FFFFFF" fill-opacity="1.000000" fill-rule="nonzero"/>
</svg>
